<svg xmlns="http://www.w3.org/2000/svg" width="20" height="20" fill="none"><path fill="#fff" d="M19.255 5.716a1.25 1.25 0 0 0-1.386-.176l-3.664 1.826-3.125-5.194a1.26 1.26 0 0 0-2.157 0L5.798 7.366 2.134 5.54A1.258 1.258 0 0 0 .377 7.058l2.89 8.856a.938.938 0 0 0 1.368.516c.019-.01 1.958-1.118 5.365-1.118s5.346 1.109 5.36 1.118a.939.939 0 0 0 1.374-.514l2.89-8.851a1.25 1.25 0 0 0-.37-1.349Zm-3.98 8.621c-1.042-.4-2.838-.9-5.275-.9-2.438 0-4.233.502-5.276.902l-2.11-6.462 2.855 1.42a1.265 1.265 0 0 0 1.64-.478L10 4.015l2.89 4.805a1.264 1.264 0 0 0 1.641.477l2.853-1.422-2.108 6.462Z"/></svg>