<svg xmlns="http://www.w3.org/2000/svg" width="40" height="40" fill="none"><g clip-path="url(#a)"><path fill="#32BBFF" d="M29.873 13.72C25.226 11.123 17.768 6.949 6.2.472a2.79 2.79 0 0 0-2.453-.32L23.595 20l6.278-6.278Z"/><path fill="#32BBFF" d="M3.747.15A2.791 2.791 0 0 0 1.84 2.813v34.372a2.79 2.79 0 0 0 1.907 2.663L23.595 20 3.747.15Z"/><path fill="#32BBFF" d="M23.595 19.998 3.747 39.847a2.76 2.76 0 0 0 2.453-.32 16610.023 16610.023 0 0 1 23.293-13.028l.386-.216-6.284-6.285Z"/><path fill="#2C9FD9" d="M1.84 19.998v17.186a2.79 2.79 0 0 0 1.907 2.663l19.848-19.849H1.84Z"/><path fill="#29CC5E" d="M6.2.47A2.798 2.798 0 0 0 3.325.332L23.294 20.3l6.579-6.58A32431.6 32431.6 0 0 1 6.2.47Z"/><path fill="#D93F21" d="M23.294 19.697 3.325 39.666c.856.454 1.948.48 2.875-.14a16716.816 16716.816 0 0 1 23.293-13.027l.386-.217-6.585-6.585Z"/><path fill="#FFD500" d="M38.16 19.998c0-.952-.48-1.913-1.433-2.446 0 0-1.78-.994-7.24-4.048l-6.494 6.494 6.5 6.5c5.4-3.031 7.234-4.053 7.234-4.053a2.783 2.783 0 0 0 1.433-2.447Z"/><path fill="#FA0" d="M36.727 22.445a2.783 2.783 0 0 0 1.433-2.447H22.993l6.5 6.5c5.4-3.03 7.234-4.053 7.234-4.053Z"/></g><defs><clipPath id="a"><path fill="#fff" d="M0 0h40v40H0z"/></clipPath></defs></svg>