<svg xmlns="http://www.w3.org/2000/svg" width="25" height="24" fill="none"><path fill="#fff" d="M20.055 3.375h-15A1.875 1.875 0 0 0 3.182 5.25v5.512c0 8.66 7.321 11.532 8.79 12.017.38.128.79.128 1.17 0 1.468-.487 8.79-3.358 8.79-12.017V5.25a1.875 1.875 0 0 0-1.876-1.875Zm-.375 7.387c0 6.897-5.674 9.331-7.124 9.844-1.45-.508-7.125-2.943-7.125-9.839V5.625h14.25v5.137ZM8.01 13.546a1.126 1.126 0 1 1 1.593-1.594l1.453 1.454 4.454-4.454a1.127 1.127 0 0 1 1.593 1.594l-5.25 5.25a1.127 1.127 0 0 1-1.593 0l-2.25-2.25Z"/></svg>