<svg xmlns="http://www.w3.org/2000/svg" width="30" height="30" fill="none"><path fill="#fff" d="M14.67 18.391a7.5 7.5 0 1 0-9.652 0 11.745 11.745 0 0 0-4.628 3.75 1.406 1.406 0 1 0 2.268 1.664 8.907 8.907 0 0 1 14.372 0 1.407 1.407 0 1 0 2.268-1.664 11.757 11.757 0 0 0-4.628-3.75Zm-9.514-5.735a4.687 4.687 0 1 1 9.375 0 4.687 4.687 0 0 1-9.375 0ZM29.31 24.102a1.407 1.407 0 0 1-1.967-.301 8.943 8.943 0 0 0-7.186-3.645 1.406 1.406 0 1 1 0-2.812 4.687 4.687 0 1 0-1.74-9.042 1.406 1.406 0 1 1-1.045-2.611 7.5 7.5 0 0 1 7.617 12.7 11.745 11.745 0 0 1 4.628 3.75 1.406 1.406 0 0 1-.307 1.96Z"/></svg>