<svg xmlns="http://www.w3.org/2000/svg" width="126" height="42" fill="none"><g fill="#94969E" fill-rule="evenodd" clip-path="url(#a)" clip-rule="evenodd"><path d="M14.033 30.277c-6.843-6.061-5.936-15.9.926-20.777 4.82-3.421 12.16-3.843 16.832 1.992 3.31 4.134 3.537 10.08 1.44 13.668-1.315 2.242-4.334 3.9-6.182 1.686-1.68-2.01.195-3.792.852-6.14 2.348-8.413-9.298-14.373-15.433-6.279-3.13 4.13-2.954 10.497 1.565 15.85Z"/><path d="M35.5 11.922c6.705 6.219 5.57 16.035-1.403 20.749-4.9 3.31-12.243 3.56-16.78-2.375-3.219-4.214-3.307-10.164-1.126-13.702 1.366-2.209 4.422-3.801 6.223-1.542 1.635 2.047-.287 3.788-.995 6.117-2.538 8.363 8.964 14.59 15.285 6.635 3.222-4.056 3.195-10.432-1.2-15.882H35.5Z"/></g><path fill="#94969E" d="m109.216 31.85 1.904-5.227.037 1.538-4.312-10.591h2.298l3.057 7.836h-.585l2.975-7.836h2.206l-5.511 14.28h-2.069Zm-3.157-4.394a9.017 9.017 0 0 1-1.922.156 4.41 4.41 0 0 1-1.676-.339 2.326 2.326 0 0 1-1.126-1.034 2.97 2.97 0 0 1-.357-1.31 56.65 56.65 0 0 1-.018-1.51v-8.595h2.197v8.467c0 .397.003.745.009 1.044.012.299.077.543.192.732.22.366.571.57 1.053.613a7.075 7.075 0 0 0 1.648-.073v1.85ZM99.166 19.3v-1.73h6.893v1.73h-6.893Zm-3.85-3.231v-2.023h2.206v2.023h-2.206Zm0 11.387V17.57h2.206v9.886h-2.206Zm-6.152.274c-1.02 0-1.889-.225-2.609-.677a4.51 4.51 0 0 1-1.657-1.867c-.378-.787-.57-1.678-.576-2.673.006-1.013.204-1.91.595-2.691a4.49 4.49 0 0 1 1.684-1.85c.726-.45 1.59-.677 2.59-.677 1.123 0 2.072.284 2.847.852.782.561 1.291 1.33 1.529 2.306l-2.197.596c-.17-.531-.455-.943-.851-1.236a2.192 2.192 0 0 0-1.355-.449c-.574 0-1.046.137-1.419.412-.372.269-.647.64-.824 1.117-.177.476-.265 1.016-.265 1.62 0 .94.21 1.7.631 2.28.422.58 1.047.869 1.877.869.586 0 1.047-.134 1.382-.403.342-.268.598-.656.77-1.162l2.251.503c-.305 1.007-.84 1.782-1.602 2.325-.763.537-1.696.806-2.801.806Zm-11.244 0c-.988 0-1.852-.222-2.59-.667a4.59 4.59 0 0 1-1.721-1.84c-.403-.788-.604-1.69-.604-2.71 0-1.037.207-1.947.622-2.728a4.59 4.59 0 0 1 1.73-1.83c.739-.44 1.593-.66 2.563-.66.995 0 1.861.223 2.6.669a4.575 4.575 0 0 1 1.72 1.849c.41.78.614 1.681.614 2.7 0 1.025-.207 1.932-.622 2.719a4.59 4.59 0 0 1-1.721 1.84c-.739.44-1.602.659-2.59.659Zm0-2.068c.879 0 1.532-.293 1.96-.879.426-.586.64-1.342.64-2.27 0-.958-.217-1.72-.65-2.288-.433-.574-1.083-.86-1.95-.86-.592 0-1.08.133-1.464.402-.379.262-.66.632-.843 1.108-.183.47-.274 1.016-.274 1.638 0 .958.216 1.724.65 2.298.44.567 1.083.851 1.931.851Zm-9.314 1.794V14h2.206v13.456h-2.206Zm-6.702.274c-1 0-1.88-.216-2.636-.65a4.629 4.629 0 0 1-1.776-1.802c-.421-.77-.632-1.654-.632-2.655 0-1.08.208-2.017.623-2.81.415-.8.991-1.42 1.73-1.858.738-.44 1.592-.66 2.563-.66 1.025 0 1.895.241 2.609.724.72.476 1.254 1.15 1.602 2.023.347.872.479 1.9.393 3.084h-2.188v-.805c-.006-1.074-.195-1.858-.567-2.353-.373-.494-.958-.741-1.758-.741-.903 0-1.574.28-2.014.842-.439.555-.659 1.37-.659 2.444 0 1 .22 1.776.66 2.325.439.55 1.08.824 1.922.824.543 0 1.01-.119 1.4-.357.397-.244.702-.595.916-1.053l2.178.66a4.415 4.415 0 0 1-1.757 2.077 4.808 4.808 0 0 1-2.61.742Zm-3.405-4.604V21.46H65.3v1.666h-6.801Zm-8.762 4.33-4.155-13.181h2.27l3.478 11.04 3.525-11.04h2.27l-4.156 13.181h-3.232Z"/><defs><clipPath id="a"><path fill="#fff" d="M9.333 7h30.64v28H9.332z"/></clipPath></defs></svg>