<svg xmlns="http://www.w3.org/2000/svg" width="24" height="24" fill="none"><path fill="#fff" fill-rule="evenodd" d="M17.974 16.977c.002.198-.062.255-.254.25a27.822 27.822 0 0 0-1.642.003c-.275.012-.357-.06-.353-.345.016-1.231.005-2.463.008-3.694 0-.337-.023-.672-.147-.99-.21-.537-.572-.9-1.172-.953-.64-.056-1.104.235-1.417.774-.206.353-.253.748-.252 1.151.003 1.244-.007 2.488.007 3.731.004.268-.078.335-.334.326a28.617 28.617 0 0 0-1.642-.002c-.21.005-.274-.058-.274-.27.007-2.562.006-5.124.002-7.686 0-.184.037-.267.244-.262.585.012 1.17.012 1.754 0 .202-.004.255.07.247.259-.013.306-.003.614-.003 1 .867-1.07 1.91-1.422 3.149-1.172 1.2.242 2.026 1.322 2.06 2.769.04 1.702.01 3.407.02 5.111ZM7.891 8.057a1.288 1.288 0 0 1-1.294-1.31 1.31 1.31 0 0 1 1.301-1.311 1.308 1.308 0 0 1 1.293 1.318 1.286 1.286 0 0 1-1.3 1.303Zm.804 9.173a27.795 27.795 0 0 0-1.641-.003c-.196.004-.284-.032-.284-.26.008-2.56.007-5.12.001-7.68 0-.206.049-.283.268-.277.559.014 1.119.018 1.677-.002.257-.009.304.086.303.319-.01 1.268-.005 2.535-.005 3.803 0 1.255-.007 2.51.006 3.766.003.255-.056.345-.325.334ZM20.918 6.038c-.05-.408-.058-.827-.282-1.191-.729-1.182-1.734-1.855-3.174-1.847-3.645.019-7.29 0-10.935.013-.548.001-1.111.02-1.608.313C3.705 4.045 2.993 5.05 3 6.521c.017 3.657 0 7.314.012 10.972.002.515.01 1.055.28 1.519.637 1.098 1.477 1.913 2.857 1.908.04 0 .07.018.104.036h11.494c.063-.057.141-.029.213-.038.413-.052.84-.054 1.207-.29 1.025-.664 1.779-1.498 1.756-2.818 0-.023.016-.044.034-.063V6.253c-.052-.065-.03-.143-.039-.215Z" clip-rule="evenodd"/></svg>