<svg xmlns="http://www.w3.org/2000/svg" width="40" height="40" fill="none"><path fill="url(#a)" d="M20 37.5c9.665 0 17.5-7.835 17.5-17.5S29.665 2.5 20 2.5 2.5 10.335 2.5 20 10.335 37.5 20 37.5Z"/><path fill="#fff" d="M23.058 10.818a1.383 1.383 0 0 0-.505-1.884 1.37 1.37 0 0 0-1.874.507l-.66 1.152-.66-1.152a1.37 1.37 0 0 0-1.874-.507 1.383 1.383 0 0 0-.505 1.884l1.455 2.54-4.603 8.036h-3.71c-.757 0-1.372.617-1.372 1.379s.615 1.38 1.373 1.38H23.04c.113-.3.232-.813.105-1.284-.19-.71-.896-1.475-2.078-1.475H17l6.058-10.576Zm-8.512 14.859c-.235-.261-.76-.679-1.22-.816-.701-.21-1.233-.078-1.502.036l-1.022 1.785a1.383 1.383 0 0 0 .505 1.884 1.37 1.37 0 0 0 1.874-.508l1.365-2.38Z"/><path fill="#fff" d="M27.787 24.152h2.09c.758 0 1.373-.617 1.373-1.38 0-.761-.615-1.378-1.373-1.378h-3.67l-4.135-7.218c-.307.293-.896 1.043-.985 1.892-.114 1.092.057 2.011.572 2.912 1.73 3.027 3.464 6.053 5.198 9.078a1.37 1.37 0 0 0 1.875.508c.657-.38.883-1.223.505-1.884l-1.45-2.53Z"/><defs><linearGradient id="a" x1="20" x2="20" y1="2.5" y2="37.5" gradientUnits="userSpaceOnUse"><stop stop-color="#2AC9FA"/><stop offset="1" stop-color="#1F65EB"/></linearGradient></defs></svg>