<svg xmlns="http://www.w3.org/2000/svg" width="25" height="24" fill="none"><path fill="#fff" d="M21.232 15.556c-.814-1.4-1.246-3.409-1.246-5.806a7.875 7.875 0 0 0-15.75 0c0 2.398-.43 4.406-1.244 5.806a1.883 1.883 0 0 0 .679 2.571c.286.165.61.25.94.248h3.392a4.125 4.125 0 0 0 8.216 0h3.392a1.853 1.853 0 0 0 1.623-.938 1.881 1.881 0 0 0-.002-1.881Zm-9.12 4.319a1.875 1.875 0 0 1-1.838-1.5h3.675a1.875 1.875 0 0 1-1.838 1.5Zm-6.877-3.75c.83-1.688 1.251-3.83 1.251-6.375a5.625 5.625 0 0 1 11.25 0c0 2.543.42 4.688 1.25 6.375H5.236Z"/></svg>