<svg xmlns="http://www.w3.org/2000/svg" width="21" height="20" fill="none"><path fill="#fff" d="M19.318 7.504a1.563 1.563 0 0 0-1.349-1.072l-4.453-.385-1.742-4.152a1.562 1.562 0 0 0-2.877 0L7.153 6.047 2.7 6.432a1.562 1.562 0 0 0-.892 2.74l3.384 2.953-1.016 4.394a1.563 1.563 0 0 0 2.33 1.692l3.827-2.325 3.828 2.325a1.563 1.563 0 0 0 2.329-1.692l-1.016-4.394 3.384-2.953a1.563 1.563 0 0 0 .46-1.668Zm-5.215 3.33a1.563 1.563 0 0 0-.496 1.533l.89 3.853-3.355-2.037a1.555 1.555 0 0 0-1.617 0L6.17 16.22l.89-3.853a1.562 1.562 0 0 0-.496-1.533L3.588 8.238l3.917-.34a1.556 1.556 0 0 0 1.304-.952l1.524-3.632 1.524 3.632a1.557 1.557 0 0 0 1.304.952l3.918.34-2.976 2.596Z"/></svg>