<svg xmlns="http://www.w3.org/2000/svg" width="31" height="30" fill="none"><path fill="#fff" d="m23.431 14.685-5.846-2.154-2.159-5.851a2.334 2.334 0 0 0-4.38 0l-2.154 5.85-5.851 2.155a2.334 2.334 0 0 0 0 4.38l5.846 2.154 2.159 5.851a2.334 2.334 0 0 0 4.38 0l2.154-5.846 5.851-2.159a2.334 2.334 0 0 0 0-4.38Zm-7.03 3.972a2.331 2.331 0 0 0-1.384 1.383l-1.78 4.837-1.783-4.838a2.33 2.33 0 0 0-1.382-1.382l-4.837-1.782 4.837-1.782a2.33 2.33 0 0 0 1.382-1.382l1.782-4.838 1.782 4.838a2.331 2.331 0 0 0 1.383 1.383l4.837 1.781-4.838 1.782Zm.116-13.97a1.406 1.406 0 0 1 1.407-1.406h1.406V1.875a1.406 1.406 0 0 1 2.812 0v1.406h1.407a1.406 1.406 0 0 1 0 2.813h-1.407V7.5a1.406 1.406 0 1 1-2.812 0V6.094h-1.406a1.406 1.406 0 0 1-1.407-1.407Zm13.125 5.625a1.406 1.406 0 0 1-1.406 1.407h-.469v.469a1.406 1.406 0 1 1-2.812 0v-.47h-.469a1.406 1.406 0 0 1 0-2.812h.469v-.469a1.406 1.406 0 0 1 2.812 0v.47h.47a1.406 1.406 0 0 1 1.405 1.405Z"/></svg>