<svg xmlns="http://www.w3.org/2000/svg" width="28" height="28" fill="none"><path fill="url(#a)" d="M14 26.25c6.765 0 12.25-5.485 12.25-12.25S20.765 1.75 14 1.75 1.75 7.235 1.75 14 7.235 26.25 14 26.25Z"/><path fill="#fff" d="M16.141 7.572a.968.968 0 0 0-.353-1.318.959.959 0 0 0-1.313.355l-.462.806-.461-.806a.959.959 0 0 0-1.313-.355.968.968 0 0 0-.353 1.318l1.019 1.779-3.223 5.624H7.086a.963.963 0 0 0-.961.966c0 .533.43.966.961.966h9.042c.08-.21.163-.569.074-.899-.133-.496-.627-1.032-1.455-1.032H11.9l4.241-7.404Zm-5.959 10.402c-.164-.183-.532-.475-.854-.571-.491-.147-.863-.055-1.051.025l-.716 1.25a.968.968 0 0 0 .353 1.318.959.959 0 0 0 1.313-.355l.955-1.667Z"/><path fill="#fff" d="M19.45 16.906h1.464c.53 0 .961-.432.961-.965a.963.963 0 0 0-.961-.966h-2.57L15.45 9.923c-.215.206-.627.73-.69 1.325-.08.764.04 1.408.401 2.038 1.212 2.119 2.425 4.237 3.639 6.355a.959.959 0 0 0 1.312.355.968.968 0 0 0 .354-1.318l-1.015-1.772Z"/><defs><linearGradient id="a" x1="14" x2="14" y1="1.75" y2="26.25" gradientUnits="userSpaceOnUse"><stop stop-color="#2AC9FA"/><stop offset="1" stop-color="#1F65EB"/></linearGradient></defs></svg>