<svg xmlns="http://www.w3.org/2000/svg" width="26" height="26" fill="none"><path fill="#fff" d="M16.695 18.393a5.282 5.282 0 1 0-7.39 0 7.708 7.708 0 0 0-3.047 2.934 1.219 1.219 0 0 0 2.11 1.219 5.382 5.382 0 0 1 9.265 0 1.218 1.218 0 1 0 2.11-1.219 7.708 7.708 0 0 0-3.048-2.934Zm-6.539-3.768a2.844 2.844 0 1 1 5.688 0 2.844 2.844 0 0 1-5.688 0Zm14.951.974a1.22 1.22 0 0 1-1.707-.243c-.846-1.126-2.016-1.99-2.979-2.197a1.219 1.219 0 0 1-.185-2.327 2.032 2.032 0 1 0-2.516-2.874 1.219 1.219 0 1 1-2.133-1.179 4.469 4.469 0 1 1 7.442 4.911 9.358 9.358 0 0 1 2.321 2.203 1.218 1.218 0 0 1-.243 1.706ZM5.58 13.162c-.963.208-2.133 1.071-2.979 2.198a1.22 1.22 0 0 1-1.949-1.467 9.38 9.38 0 0 1 2.32-2.203 4.47 4.47 0 1 1 7.443-4.91A1.217 1.217 0 0 1 9.01 8.563a1.219 1.219 0 0 1-.729-.606 2.031 2.031 0 1 0-2.516 2.874 1.219 1.219 0 0 1-.185 2.327l-.001.003Z"/></svg>