<svg xmlns="http://www.w3.org/2000/svg" width="126" height="42" fill="none"><g fill="#94969E" clip-path="url(#a)"><path d="M24.215 34.923c-.053.04-.131-.009-.133-.075-.182-9.375-7.399-17.62-17.888-18.057-.137-.006-.22-.176-.122-.273 3.106-3.106 6.212-6.212 9.31-9.326.177-.177.33-.23.569-.169 8.172 2.107 14.015 6.866 17.021 14.861.377 1 .6 2.06.877 3.099a.497.497 0 0 1-.1.4c-3.175 3.182-6.35 6.365-9.534 9.54Z"/><path d="M5.972 21c.76-.8 1.522-1.622 2.321-2.414.116-.115.408-.108.6-.07 1.722.324 3.352.939 4.89 1.777 4.674 2.575 7.48 6.52 8.58 11.716.061.292.007.492-.208.715-.738.723-1.453 1.477-2.183 2.222-.016.016-.039.023-.093.054-.161-3.805-1.345-7.188-4.105-9.88-2.745-2.675-6.097-3.928-9.802-4.12Z"/><path d="M15.636 34.985c-.2-6.328-5.274-9.672-9.803-9.764.123-.13.2-.23.292-.323.63-.615 1.277-1.223 1.892-1.86.253-.27.492-.331.838-.231 4.559 1.284 7.603 4.136 9.08 8.664.23.723.184 1.223-.431 1.722-.661.53-1.238 1.177-1.868 1.792Z"/><path d="M11.423 34.923c-.193-3.221-2.568-5.297-5.574-5.497.084-.1.153-.184.223-.261.66-.646 1.322-1.284 1.975-1.938.17-.177.316-.2.539-.115 2.567.93 4.243 2.737 5.19 5.259.037.092.022.269-.04.33-.776.754-1.552 1.492-2.313 2.222Z"/></g><path fill="#94969E" d="M119.609 27.716v-5.752c0-.649-.16-1.154-.482-1.517-.321-.368-.757-.552-1.306-.552-.339 0-.643.079-.912.237-.269.152-.482.38-.64.684-.158.298-.237.654-.237 1.07l-.938-.553c-.006-.655.14-1.23.438-1.727a3.2 3.2 0 0 1 1.228-1.175 3.528 3.528 0 0 1 1.718-.421c1.047 0 1.847.316 2.403.947.561.625.841 1.45.841 2.472v6.287h-2.113Zm-11.389 0v-9.47h1.868v2.938h.263v6.532h-2.131Zm5.708 0V21.99c0-.66-.161-1.174-.482-1.543-.322-.368-.76-.552-1.316-.552-.537 0-.97.184-1.297.552-.322.369-.482.848-.482 1.438l-.947-.631c0-.614.152-1.166.456-1.657a3.247 3.247 0 0 1 1.227-1.158 3.557 3.557 0 0 1 1.745-.43c.707 0 1.298.153 1.771.457.479.298.836.707 1.07 1.227.239.515.359 1.096.359 1.745v6.278h-2.104Zm-13.116.272c-.702 0-1.28-.117-1.736-.351a3.066 3.066 0 0 1-1.088-.894 3.894 3.894 0 0 1-.596-1.158 6.194 6.194 0 0 1-.254-1.157 9.843 9.843 0 0 1-.053-.894v-5.287h2.14v4.559c0 .292.02.622.06.99a3.7 3.7 0 0 0 .282 1.053c.152.333.374.608.666.824.298.216.698.324 1.201.324.269 0 .535-.044.798-.131.263-.088.5-.237.71-.447.216-.217.389-.512.517-.886.129-.374.193-.847.193-1.42l1.254.535c0 .806-.158 1.537-.473 2.192a3.73 3.73 0 0 1-1.377 1.569c-.608.386-1.356.579-2.244.579Zm3.095-.272v-2.937h-.255v-6.532h2.122v9.469h-1.867Zm-13.65 0v-9.47h1.867v2.306l-.228-.298c.117-.315.272-.602.465-.859.198-.263.435-.48.71-.649a2.97 2.97 0 0 1 .772-.368 3.46 3.46 0 0 1 .876-.166c.298-.024.588-.012.868.035v1.972a2.707 2.707 0 0 0-.973-.079 2.23 2.23 0 0 0-.982.307c-.292.158-.532.36-.719.605a2.554 2.554 0 0 0-.403.842 3.69 3.69 0 0 0-.132 1.008v4.814h-2.121Zm-2.037 0a8.628 8.628 0 0 1-1.84.149 4.22 4.22 0 0 1-1.605-.324 2.224 2.224 0 0 1-1.079-.991 2.823 2.823 0 0 1-.342-1.254 53.734 53.734 0 0 1-.017-1.447v-8.233h2.104v8.11c0 .38.003.714.009 1 .011.286.073.52.184.701.21.351.546.547 1.008.588.462.04.988.017 1.578-.07v1.77Zm-6.602-7.812v-1.657h6.602v1.657h-6.602Zm-4.922 8.075c-.976 0-1.81-.216-2.499-.649a4.32 4.32 0 0 1-1.587-1.788c-.362-.755-.546-1.608-.552-2.56.005-.971.195-1.83.57-2.578a4.3 4.3 0 0 1 1.613-1.771c.695-.433 1.523-.65 2.481-.65 1.076 0 1.985.272 2.727.816.748.538 1.236 1.274 1.464 2.21l-2.104.57c-.164-.51-.435-.904-.816-1.184a2.1 2.1 0 0 0-1.297-.43c-.55 0-1.003.132-1.36.395a2.24 2.24 0 0 0-.788 1.07 4.43 4.43 0 0 0-.255 1.551c0 .9.202 1.628.605 2.183.404.556 1.003.833 1.798.833.561 0 1.002-.128 1.324-.385.327-.257.573-.629.736-1.114l2.157.482c-.292.965-.803 1.707-1.534 2.227-.73.515-1.625.772-2.683.772Zm-10.356 0c-.959 0-1.8-.207-2.525-.622a4.433 4.433 0 0 1-1.701-1.728c-.403-.736-.605-1.584-.605-2.543 0-1.034.199-1.931.596-2.691a4.355 4.355 0 0 1 1.657-1.78c.707-.42 1.526-.631 2.455-.631.982 0 1.815.23 2.499.692.69.456 1.201 1.102 1.534 1.938.334.836.46 1.82.377 2.955h-2.095v-.772c-.006-1.029-.187-1.78-.544-2.253-.356-.474-.917-.71-1.683-.71-.865 0-1.508.268-1.93.806-.42.532-.63 1.313-.63 2.341 0 .959.21 1.701.63 2.227.422.526 1.036.79 1.842.79.52 0 .968-.114 1.342-.343.38-.233.672-.57.877-1.008l2.086.632a4.23 4.23 0 0 1-1.683 1.99 4.605 4.605 0 0 1-2.5.71Zm-3.262-4.41v-1.596h6.515v1.596h-6.515Zm-7.298 4.41c-.924 0-1.698-.22-2.324-.658-.625-.438-1.096-1.034-1.411-1.788-.316-.76-.474-1.61-.474-2.552 0-.952.158-1.806.474-2.56.315-.754.777-1.347 1.385-1.78.614-.438 1.37-.657 2.27-.657.895 0 1.67.219 2.324.657a4.306 4.306 0 0 1 1.535 1.78c.362.748.543 1.602.543 2.56 0 .947-.178 1.798-.534 2.552-.357.754-.86 1.35-1.509 1.788-.648.439-1.408.658-2.28.658Zm-4.568 3.946V18.247h1.867v6.646h.263v7.032h-2.13Zm4.243-5.84c.55 0 1.003-.137 1.36-.412a2.4 2.4 0 0 0 .788-1.113c.176-.474.264-1 .264-1.579 0-.573-.088-1.093-.264-1.56a2.4 2.4 0 0 0-.815-1.123c-.368-.28-.836-.42-1.403-.42-.538 0-.976.131-1.315.394-.339.257-.59.62-.754 1.087-.158.462-.237 1.003-.237 1.622 0 .614.08 1.155.237 1.622.164.468.418.833.763 1.096.35.258.81.386 1.376.386Zm-11.078 1.894c-.923 0-1.756-.16-2.498-.482a4.72 4.72 0 0 1-1.824-1.377c-.474-.602-.774-1.315-.903-2.14l2.192-.332c.187.748.57 1.326 1.148 1.736.585.409 1.257.613 2.017.613.45 0 .874-.07 1.271-.21.398-.14.72-.345.965-.614.251-.269.377-.599.377-.99 0-.176-.03-.337-.088-.483a1.148 1.148 0 0 0-.263-.403 1.626 1.626 0 0 0-.438-.316c-.176-.1-.38-.184-.614-.254l-3.262-.965a9.203 9.203 0 0 1-.912-.324 3.927 3.927 0 0 1-.92-.57 2.93 2.93 0 0 1-.71-.93c-.181-.38-.272-.847-.272-1.402 0-.813.204-1.494.614-2.043.415-.555.97-.97 1.666-1.245.7-.275 1.478-.41 2.332-.403.865.005 1.636.155 2.314.447a4.397 4.397 0 0 1 1.701 1.254c.456.55.778 1.213.965 1.99l-2.271.394a2.466 2.466 0 0 0-.544-1.13 2.536 2.536 0 0 0-.973-.72 3.275 3.275 0 0 0-2.393-.07 2.11 2.11 0 0 0-.869.561 1.26 1.26 0 0 0-.324.86c0 .31.094.564.28.762.188.193.419.348.693.465.28.111.564.205.85.28l2.263.632c.31.082.657.193 1.043.333.386.14.757.336 1.114.588.356.251.649.581.877.99.233.41.35.93.35 1.561 0 .655-.137 1.23-.412 1.727-.269.491-.634.9-1.096 1.228a5.01 5.01 0 0 1-1.587.736 6.91 6.91 0 0 1-1.858.246Z"/><defs><clipPath id="a"><path fill="#fff" d="M5.833 7h28.023v28H5.833z"/></clipPath></defs></svg>