<svg xmlns="http://www.w3.org/2000/svg" width="20" height="20" fill="none"><g clip-path="url(#a)"><path stroke="#fff" stroke-linejoin="round" stroke-width="2" d="M10 18.333a8.308 8.308 0 0 0 5.893-2.441 8.308 8.308 0 0 0 2.44-5.893 8.308 8.308 0 0 0-2.44-5.892A8.307 8.307 0 0 0 10 1.666a8.307 8.307 0 0 0-5.892 2.44A8.307 8.307 0 0 0 1.667 10c0 2.301.933 4.385 2.44 5.893A8.307 8.307 0 0 0 10 18.332Z"/><path stroke="#fff" stroke-linecap="round" stroke-linejoin="round" stroke-width="2" d="M10 11.926V10.26a2.5 2.5 0 1 0-2.5-2.5"/><path fill="#fff" fill-rule="evenodd" d="M10 15.677a1.042 1.042 0 1 0 0-2.083 1.042 1.042 0 0 0 0 2.083Z" clip-rule="evenodd"/></g><defs><clipPath id="a"><path fill="#fff" d="M0 0h20v20H0z"/></clipPath></defs></svg>