<svg xmlns="http://www.w3.org/2000/svg" width="61" height="60" fill="none"><g clip-path="url(#a)"><path fill="#fff" fill-rule="evenodd" d="M57.5 52.213 30.5 6s-3.793 6.633-6.025 10.171c-2.231 3.538-.67 6.855-.67 6.855s3.316 5.874 6.81 12.018c-.868-.995-2.005-1.924-3.462-2.731-7.587-4.202-13.388 2.432-13.388 2.432L3.5 52.213s7.587.442 15.843.22c7.946-.212 9.691-2.473 11.8-5.205l.25-.322c1.329-1.712 2.262-5.073 1.196-8.398 2.356 4.128 4.52 7.89 5.498 9.503 2.677 4.423 5.801 4.202 5.801 4.202H57.5Z" clip-rule="evenodd"/></g><defs><clipPath id="a"><path fill="#fff" d="M3.5 6h54v46.5h-54z"/></clipPath></defs></svg>