<svg xmlns="http://www.w3.org/2000/svg" width="20" height="20" fill="none"><path fill="#fff" d="M13.937 12.344c-.86 1.489-2.296 2.344-3.937 2.344-1.64 0-3.075-.854-3.937-2.344a.938.938 0 0 1 1.624-.938c.304.526 1.008 1.406 2.313 1.406 1.305 0 2.01-.88 2.313-1.406a.938.938 0 1 1 1.624.938Zm4.5-2.344A8.437 8.437 0 1 1 10 1.562 8.447 8.447 0 0 1 18.438 10Zm-1.875 0A6.562 6.562 0 1 0 10 16.563 6.57 6.57 0 0 0 16.563 10Zm-9.375-.313a1.25 1.25 0 1 0 0-2.5 1.25 1.25 0 0 0 0 2.5Zm5.625-2.5a1.25 1.25 0 1 0 0 2.501 1.25 1.25 0 0 0 0-2.5Z"/></svg>