<svg xmlns="http://www.w3.org/2000/svg" width="26" height="26" fill="none"><path fill="#fff" d="M18.118 16.047C17 17.983 15.133 19.094 13 19.094c-2.133 0-3.998-1.11-5.118-3.047a1.219 1.219 0 0 1 2.11-1.219c.396.684 1.312 1.828 3.008 1.828s2.612-1.145 3.007-1.828a1.22 1.22 0 1 1 2.11 1.219ZM23.968 13A10.97 10.97 0 1 1 13 2.031 10.98 10.98 0 0 1 23.969 13Zm-2.437 0A8.532 8.532 0 1 0 13 21.531 8.54 8.54 0 0 0 21.531 13Zm-12.187-.406a1.626 1.626 0 1 0 0-3.252 1.626 1.626 0 0 0 0 3.252Zm7.312-3.25a1.625 1.625 0 1 0 0 3.25 1.625 1.625 0 0 0 0-3.25Z"/></svg>