<svg xmlns="http://www.w3.org/2000/svg" width="132" height="44" fill="none"><path fill="#fff" d="M120.93 34.372c-3.906 0-5.332-2.263-5.332-5.952v-7.192h-2.201l.062-3.286h1.147c1.612-.093 2.263-.682 2.449-2.201l.279-1.674h2.573v3.658h4.03v3.627h-4.03v6.82c0 1.674.93 2.17 2.108 2.17.682 0 1.457-.186 2.015-.558v4.123c-1.271.372-2.294.465-3.1.465Zm-11.837-18.724c-1.767 0-2.697-.744-2.697-2.14 0-1.425.93-2.17 2.697-2.17s2.697.776 2.697 2.17c0 1.365-.961 2.14-2.697 2.14ZM106.861 34V17.725h4.464V34h-4.464Zm-19.042 4.96V17.725H91.6l-.031 4.712.434.031c.62-3.441 2.449-5.177 5.394-5.177 4.154 0 6.603 3.224 6.603 8.618 0 5.239-2.325 8.525-6.417 8.525-3.038 0-4.712-1.86-5.487-5.115h-.465c.31 1.798.65 3.689.65 5.27v4.371H87.82Zm8.184-8.153c2.17 0 3.379-2.046 3.379-4.867 0-2.914-1.302-4.898-3.441-4.898-2.387 0-3.69 2.356-3.69 4.681v.465c0 2.263 1.427 4.619 3.752 4.619ZM68.777 38.96V17.725h3.782l-.031 4.712.434.031c.62-3.441 2.449-5.177 5.394-5.177 4.154 0 6.603 3.224 6.603 8.618 0 5.239-2.325 8.525-6.417 8.525-3.038 0-4.712-1.86-5.487-5.115h-.465c.31 1.798.65 3.689.65 5.27v4.371h-4.463Zm8.184-8.153c2.17 0 3.379-2.046 3.379-4.867 0-2.914-1.302-4.898-3.441-4.898-2.387 0-3.69 2.356-3.69 4.681v.465c0 2.263 1.427 4.619 3.752 4.619ZM46.403 34l7.006-20.46h6.262L66.646 34H61.81l-1.178-3.968h-8.184L51.239 34h-4.836Zm9.951-16.895-2.976 9.827h6.293l-2.945-9.827h-.372Z"/><g clip-path="url(#a)" filter="url(#b)"><path fill="#fff" fill-rule="evenodd" d="M39 36.808 21 6s-2.529 4.422-4.017 6.78c-1.487 2.36-.446 4.57-.446 4.57s2.21 3.917 4.54 8.013c-.58-.664-1.337-1.283-2.308-1.821-5.058-2.801-8.926 1.621-8.926 1.621L3 36.81s5.058.294 10.562.147c5.297-.142 6.46-1.65 7.867-3.47l.166-.215c.886-1.142 1.509-3.382.797-5.6 1.571 2.753 3.015 5.261 3.666 6.337 1.785 2.948 3.868 2.8 3.868 2.8H39Z" clip-rule="evenodd"/></g><defs><clipPath id="a"><path fill="#fff" d="M3 6h36v31H3z"/></clipPath><filter id="b" width="36" height="32.997" x="3" y="6" color-interpolation-filters="sRGB" filterUnits="userSpaceOnUse"><feFlood flood-opacity="0" result="BackgroundImageFix"/><feBlend in="SourceGraphic" in2="BackgroundImageFix" result="shape"/><feColorMatrix in="SourceAlpha" result="hardAlpha" values="0 0 0 0 0 0 0 0 0 0 0 0 0 0 0 0 0 0 127 0"/><feOffset dy="3"/><feGaussianBlur stdDeviation="1"/><feComposite in2="hardAlpha" k2="-1" k3="1" operator="arithmetic"/><feColorMatrix values="0 0 0 0 1 0 0 0 0 1 0 0 0 0 1 0 0 0 0.25 0"/><feBlend in2="shape" result="effect1_innerShadow_82_364"/></filter></defs></svg>