<svg xmlns="http://www.w3.org/2000/svg" width="28" height="28" fill="none"><path fill="#32BBFF" d="M19.924 10.233 5.721 2.283a1.674 1.674 0 0 0-1.472-.192l11.909 11.908 3.766-3.766Z"/><path fill="#32BBFF" d="M4.249 2.09a1.675 1.675 0 0 0-1.144 1.597v20.624a1.674 1.674 0 0 0 1.144 1.597L16.157 14 4.25 2.091Z"/><path fill="#32BBFF" d="M16.158 14 4.249 25.907a1.656 1.656 0 0 0 1.472-.192c6.731-3.77 11.155-6.244 13.976-7.816l.231-.13-3.77-3.77Z"/><path fill="#2C9FD9" d="M3 14v10.39A1.69 1.69 0 0 0 4.14 26L16 14H3Z"/><path fill="#29CC5E" d="M5.732 2.278A1.715 1.715 0 0 0 4 2.196L16.035 14 20 10.11c-2.8-1.536-7.296-4.003-14.268-7.832Z"/><path fill="#D93F21" d="M16.032 14 4 25.802a1.702 1.702 0 0 0 1.732-.082A10128.633 10128.633 0 0 1 20 17.892L16.032 14Z"/><path fill="#FFD500" d="M25 13.998c0-.586-.285-1.178-.85-1.506L19.853 10 16 13.998 19.857 18c3.204-1.866 4.293-2.496 4.293-2.496.565-.328.85-.92.85-1.506Z"/><path fill="#FA0" d="M24.15 15.505c.565-.328.85-.919.85-1.505h-9l3.857 4c3.204-1.866 4.293-2.495 4.293-2.495Z"/></svg>