<svg xmlns="http://www.w3.org/2000/svg" width="21" height="20" fill="none"><path fill="#fff" d="m15.88 9.79-3.898-1.436-1.438-3.9a1.556 1.556 0 0 0-2.92 0l-1.437 3.9-3.9 1.436a1.557 1.557 0 0 0 0 2.92l3.897 1.436 1.44 3.9a1.556 1.556 0 0 0 2.92 0l1.435-3.897 3.901-1.439a1.557 1.557 0 0 0 0-2.92Zm-4.687 2.648a1.553 1.553 0 0 0-.922.922l-1.188 3.224-1.188-3.225a1.553 1.553 0 0 0-.921-.92L3.749 11.25l3.225-1.188a1.554 1.554 0 0 0 .921-.921l1.188-3.225 1.189 3.225a1.553 1.553 0 0 0 .921.921l3.225 1.188-3.225 1.188Zm.078-9.313a.938.938 0 0 1 .937-.938h.938V1.25a.938.938 0 0 1 1.875 0v.938h.937a.937.937 0 1 1 0 1.874h-.937V5a.937.937 0 1 1-1.875 0v-.938h-.938a.937.937 0 0 1-.937-.937Zm8.75 3.75a.937.937 0 0 1-.938.938h-.312v.312a.937.937 0 1 1-1.875 0v-.313h-.313a.937.937 0 0 1 0-1.875h.313v-.312a.938.938 0 0 1 1.875 0v.313h.312a.937.937 0 0 1 .938.937Z"/></svg>