<svg xmlns="http://www.w3.org/2000/svg" width="126" height="42" fill="none"><g fill="#94969E" clip-path="url(#a)"><path d="M16.333 20.992c0 3.865 1.61 7.589 4.438 10.241.86-1.456 1.138-3.288.632-5.14-.698-2.566-2.715-4.47-5.07-5.1Z"/><path d="M17.055 16.586a13.965 13.965 0 0 0-.667 3.174c3.261.326 6.027 4.08 6.349 8.844a12.696 12.696 0 0 1-.337 3.928c.733.506 1.526.942 2.373 1.31.448-2.22.432-4.677-.14-7.156-1.12-4.846-4.082-8.562-7.578-10.104v.004Zm15.099-2.327c3.54.796 7.008.27 9.696-1.216a13.663 13.663 0 0 0-1.715-2.037c-2.433 1.958-6.521 2.358-10.433.73-2.04-.848-3.724-2.123-4.917-3.586-.373.16-.741.337-1.099.533 1.766 2.645 4.772 4.744 8.468 5.576Zm12.026 8.817c.114-.765.165-1.535.153-2.296-2.923.922-5.693 3.069-7.557 6.18-1.416 2.366-2.095 4.928-2.091 7.346.33-.106.651-.224.973-.354.29-2.2 1.456-4.72 3.394-6.964 1.558-1.805 3.367-3.14 5.128-3.908v-.004Z"/><path d="M42.968 14.98c-3.948 1.806-9.986 1.63-15.97-.858-2.284-.95-4.332-2.143-6.078-3.48a13.808 13.808 0 0 0-2.88 3.668c4.52 1.903 8.216 8.895 8.793 17.457.063.953.087 1.891.07 2.81 1.928.49 3.886.549 5.765.227.282-3.94 2.303-8.59 5.854-12.698 1.652-1.91 3.465-3.507 5.32-4.759a13.827 13.827 0 0 0-.874-2.366ZM30.773 26.043c-5.627 0-5.62-8.73 0-8.73 5.619 0 5.619 8.73 0 8.73ZM32.81 11.59c2.236.413 4.492-.219 6.234-1.545a13.92 13.92 0 0 0-3.339-1.97 13.933 13.933 0 0 0-8.114-.8c.808 2.17 2.7 3.853 5.218 4.316Zm10.601 14.393c-2.056.326-4.092 1.7-5.39 3.861a8.563 8.563 0 0 0-1.19 3.555 13.94 13.94 0 0 0 6.427-7.024c.055-.129.102-.262.153-.392Z"/></g><path fill="#94969E" d="m99.626 28.046 3.852-5.326-3.774-5.208h2.77l2.37 3.365 2.331-3.365h2.77l-3.775 5.208 3.873 5.326h-2.77l-2.429-3.482-2.448 3.482h-2.77Zm-5.396.292c-1.066 0-2.002-.23-2.808-.692a4.931 4.931 0 0 1-1.892-1.922c-.45-.819-.674-1.762-.674-2.828 0-1.151.222-2.15.664-2.995.442-.852 1.056-1.512 1.843-1.98.787-.468 1.697-.702 2.731-.702 1.093 0 2.02.257 2.78.77.767.508 1.337 1.226 1.707 2.156.37.93.51 2.026.42 3.287h-2.332v-.858c-.006-1.145-.208-1.98-.604-2.507-.397-.527-1.021-.79-1.873-.79-.962 0-1.678.3-2.146.897-.468.592-.702 1.46-.702 2.605 0 1.066.234 1.892.702 2.477.468.585 1.151.878 2.048.878.58 0 1.077-.127 1.493-.38.422-.26.748-.634.975-1.122l2.322.702c-.404.95-1.028 1.688-1.873 2.214a5.124 5.124 0 0 1-2.78.79Zm-3.628-4.906v-1.775h7.248v1.775h-7.248Zm-2.892 4.614a9.608 9.608 0 0 1-2.048.166c-.664-.014-1.259-.134-1.785-.361a2.474 2.474 0 0 1-1.2-1.103 3.141 3.141 0 0 1-.38-1.394 59.378 59.378 0 0 1-.02-1.61v-9.159h2.341v9.023c0 .422.003.793.01 1.112.013.318.081.578.205.78.234.39.608.608 1.121.653.514.046 1.1.02 1.756-.078v1.97Zm-7.345-8.691V17.51h7.345v1.844h-7.345Zm-6.621 8.691V17.51h2.078v2.566l-.254-.332c.13-.351.302-.67.517-.956.221-.293.484-.533.79-.722.26-.175.546-.312.858-.41.319-.103.644-.165.976-.185.331-.026.653-.013.965.04v2.194a3.017 3.017 0 0 0-1.082-.088 2.48 2.48 0 0 0-1.093.342c-.325.175-.591.4-.8.673a2.84 2.84 0 0 0-.448.936 4.104 4.104 0 0 0-.147 1.122v5.355h-2.36Zm-7.406.292c-1.054 0-1.974-.237-2.76-.712a4.89 4.89 0 0 1-1.835-1.96c-.429-.839-.643-1.801-.643-2.887 0-1.106.22-2.075.663-2.907a4.89 4.89 0 0 1 1.843-1.95c.787-.469 1.698-.703 2.732-.703 1.06 0 1.983.237 2.77.712a4.876 4.876 0 0 1 1.833 1.97c.436.833.654 1.792.654 2.878 0 1.092-.221 2.058-.663 2.897a4.891 4.891 0 0 1-1.834 1.96c-.787.468-1.707.702-2.76.702Zm0-2.204c.936 0 1.632-.312 2.087-.936.455-.625.683-1.431.683-2.42 0-1.02-.231-1.833-.693-2.438-.462-.611-1.154-.917-2.078-.917-.63 0-1.15.143-1.56.43-.403.28-.702.672-.898 1.18-.195.5-.292 1.082-.292 1.746 0 1.02.23 1.837.692 2.448.469.605 1.155.907 2.059.907ZM53.51 28.046 49.082 14H51.5l3.706 11.763L58.962 14h2.42l-4.429 14.046H53.51Z"/><defs><clipPath id="a"><path fill="#fff" d="M16.333 7h28v28h-28z"/></clipPath></defs></svg>