<svg xmlns="http://www.w3.org/2000/svg" width="25" height="24" fill="none"><path fill="#fff" d="M19.611 2.625h-1.875V2.25a1.125 1.125 0 1 0-2.25 0v.375h-6.75V2.25a1.125 1.125 0 1 0-2.25 0v.375H4.611A1.875 1.875 0 0 0 2.736 4.5v15a1.875 1.875 0 0 0 1.875 1.875h15a1.875 1.875 0 0 0 1.875-1.875v-15a1.875 1.875 0 0 0-1.875-1.875ZM6.486 4.875a1.125 1.125 0 0 0 2.25 0h6.75a1.125 1.125 0 1 0 2.25 0h1.5v2.25H4.986v-2.25h1.5Zm-1.5 14.25v-9.75h14.25v9.75H4.986Zm10.5-4.875a1.125 1.125 0 0 1-1.125 1.125h-1.125V16.5a1.125 1.125 0 1 1-2.25 0v-1.125H9.861a1.125 1.125 0 1 1 0-2.25h1.125V12a1.125 1.125 0 1 1 2.25 0v1.125h1.125a1.125 1.125 0 0 1 1.125 1.125Z"/></svg>