<svg xmlns="http://www.w3.org/2000/svg" width="126" height="42" fill="none"><g fill="#94969E" clip-path="url(#a)"><path d="M18.326 8.468c6.134-3.44 14.895-.62 19.574 6.305 4.679 6.923 3.502 15.322-2.628 18.762 5.212-2.923 6.212-10.066 2.235-15.95-3.977-5.883-11.428-8.282-16.637-5.359-5.213 2.926-6.213 10.066-2.239 15.953 3.977 5.883 11.425 8.282 16.637 5.356-6.133 3.443-14.895.62-19.573-6.304-4.676-6.92-3.498-15.323 2.631-18.763Z"/><path d="M22.886 10.693c5.024-2.82 12.204-.507 16.034 5.165 3.834 5.67 2.868 12.554-2.156 15.374 4.271-2.396 5.09-8.249 1.831-13.068-3.255-4.819-9.36-6.787-13.629-4.39-4.27 2.395-5.089 8.248-1.83 13.07 3.258 4.822 9.36 6.787 13.631 4.388-5.024 2.82-12.204.51-16.034-5.165-3.834-5.671-2.868-12.557 2.156-15.374h-.003Z"/><path d="M29.943 10.467c5.325.335 10.202 4.963 10.89 10.336.685 5.374-3.076 9.457-8.402 9.125 4.528.284 7.725-3.187 7.143-7.756-.585-4.569-4.727-8.502-9.255-8.786-4.528-.284-7.728 3.187-7.143 7.756.586 4.57 4.73 8.502 9.255 8.786-5.325-.336-10.2-4.963-10.887-10.336-.688-5.374 3.073-9.457 8.402-9.125h-.003Z"/><path d="M35.532 12.64c4.213 2.53 6.202 7.674 4.446 11.486-1.76 3.813-6.599 4.854-10.812 2.324 3.583 2.15 7.697 1.267 9.19-1.974 1.495-3.242-.2-7.612-3.78-9.765-3.582-2.15-7.696-1.266-9.189 1.975-1.495 3.241.195 7.612 3.779 9.761-4.213-2.53-6.202-7.673-4.443-11.486 1.76-3.813 6.6-4.853 10.812-2.324l-.003.003Z"/></g><path fill="#94969E" d="M107.649 29.408c-.759 0-1.4-.143-1.926-.428a3.031 3.031 0 0 1-1.196-1.157 3.214 3.214 0 0 1-.398-1.586c0-.505.084-.96.252-1.361a2.69 2.69 0 0 1 .778-1.05c.35-.299.804-.542 1.362-.73.421-.136.914-.259 1.478-.37a34.44 34.44 0 0 1 1.848-.3c.668-.098 1.364-.202 2.091-.312l-.837.477c.007-.727-.155-1.261-.486-1.605-.331-.344-.888-.515-1.673-.515-.473 0-.93.11-1.371.33-.441.22-.749.6-.924 1.138l-2.139-.671a3.974 3.974 0 0 1 1.478-2.14c.733-.538 1.718-.807 2.956-.807.934 0 1.754.153 2.461.457a3.057 3.057 0 0 1 1.585 1.498 3.2 3.2 0 0 1 .34 1.138c.039.382.059.8.059 1.254v6.448h-2.052V26.84l.34.37c-.473.758-1.028 1.316-1.663 1.673-.629.35-1.417.525-2.363.525Zm.467-1.867c.531 0 .985-.095 1.361-.282.376-.189.674-.419.895-.69.227-.273.379-.53.457-.77.123-.297.191-.638.204-1.02.02-.39.029-.704.029-.944l.72.214c-.707.11-1.313.208-1.819.292-.505.084-.94.165-1.303.243a8.26 8.26 0 0 0-.962.243 2.97 2.97 0 0 0-.691.34c-.188.13-.334.28-.438.448a1.169 1.169 0 0 0-.145.593c0 .26.064.49.194.69.13.195.318.35.564.468.253.116.564.175.934.175Zm-8.314 1.575v-5.057c0-.33-.023-.697-.069-1.099a3.8 3.8 0 0 0-.32-1.157 2.195 2.195 0 0 0-.74-.924c-.324-.24-.765-.36-1.322-.36a2.78 2.78 0 0 0-.885.146 2.03 2.03 0 0 0-.798.506c-.233.233-.421.557-.564.972-.142.409-.214.934-.214 1.576l-1.39-.593c0-.895.172-1.706.515-2.432a4.138 4.138 0 0 1 1.537-1.73c.674-.435 1.504-.652 2.49-.652.777 0 1.42.13 1.925.389.505.26.907.59 1.206.992.298.402.518.83.661 1.283.143.454.233.885.272 1.294.046.402.068.73.068.982v5.864h-2.373Zm-7.284 0V18.613h2.09v3.258h.282v7.245h-2.372ZM87.28 17.018V14.87h2.344v2.15H87.28Zm0 12.098V18.613h2.344v10.503H87.28Zm-5.074 0v-6.38c0-.72-.179-1.28-.535-1.682-.357-.408-.84-.613-1.45-.613a1.96 1.96 0 0 0-1.01.263 1.791 1.791 0 0 0-.71.758c-.176.331-.263.727-.263 1.187l-1.04-.613c-.007-.726.155-1.364.486-1.916a3.552 3.552 0 0 1 1.361-1.303 3.914 3.914 0 0 1 1.906-.466c1.16 0 2.049.35 2.665 1.05.622.694.933 1.608.933 2.742v6.973h-2.344Zm-12.633 0V18.613h2.071v3.258h.292v7.245h-2.363Zm6.33 0v-6.35c0-.733-.177-1.303-.534-1.712-.357-.408-.843-.613-1.459-.613-.596 0-1.076.205-1.439.613-.357.409-.535.94-.535 1.595l-1.05-.7c0-.681.168-1.294.505-1.838a3.6 3.6 0 0 1 1.362-1.284 3.945 3.945 0 0 1 1.935-.476c.785 0 1.44.168 1.965.505.531.33.927.785 1.186 1.362.266.57.399 1.215.399 1.935v6.963h-2.334Zm-14.547.301c-.778 0-1.42-.13-1.926-.389a3.4 3.4 0 0 1-1.205-.991 4.314 4.314 0 0 1-.662-1.284 6.867 6.867 0 0 1-.282-1.284 10.93 10.93 0 0 1-.058-.992v-5.864h2.373v5.057c0 .324.022.69.068 1.099.045.402.149.79.311 1.167.169.37.415.674.74.914.33.24.774.36 1.331.36.299 0 .594-.049.885-.146a2 2 0 0 0 .788-.496c.24-.24.431-.567.574-.982.142-.415.214-.94.214-1.576l1.39.594c0 .894-.175 1.705-.525 2.43a4.135 4.135 0 0 1-1.526 1.742c-.675.427-1.505.641-2.49.641Zm3.433-.301v-3.258h-.282v-7.245h2.353v10.503h-2.07Zm-17.548 0V15.112h2.344v11.806h6.185v2.198h-8.529Z"/><defs><clipPath id="a"><path fill="#fff" d="M12.833 7h28.435v28H12.833z"/></clipPath></defs></svg>