<svg xmlns="http://www.w3.org/2000/svg" width="30" height="30" fill="none"><path fill="#fff" d="M15 2.344A12.656 12.656 0 1 0 27.656 15 12.67 12.67 0 0 0 15 2.344ZM24.844 15a9.8 9.8 0 0 1-.524 3.164l-4.75-2.93a2.302 2.302 0 0 0-.914-.325l-2.674-.361a2.36 2.36 0 0 0-2.187.92h-.477l-.317-.655a2.33 2.33 0 0 0-1.617-1.27l-.315-.066.47-.82h1.686c.396 0 .785-.101 1.132-.293l1.435-.792a2.41 2.41 0 0 0 .438-.314l3.155-2.851a2.345 2.345 0 0 0 .771-1.787A9.844 9.844 0 0 1 24.844 15Zm-8.349-9.727.727 1.301-2.837 2.567-1.281.703h-1.838a2.35 2.35 0 0 0-2.034 1.179l-.526.92-.775-2.066 1.162-2.745a9.833 9.833 0 0 1 7.402-1.859ZM5.156 15c0-1.067.174-2.127.516-3.137l.907 2.42A2.33 2.33 0 0 0 8.28 15.75l2.29.492.35.715a2.356 2.356 0 0 0 1.589 1.262l-.586 1.303a2.343 2.343 0 0 0 .42 2.545l.024.025 2.128 2.192-.104.538A9.855 9.855 0 0 1 5.156 15Zm12.147 9.57a2.356 2.356 0 0 0-.586-2.028l-.025-.026-2.076-2.138 1.332-2.99 2.227.3 4.855 2.985a9.866 9.866 0 0 1-5.727 3.897Z"/></svg>