<svg xmlns="http://www.w3.org/2000/svg" width="31" height="30" fill="none"><path fill="#fff" d="M15.111 2.344a12.656 12.656 0 1 0 3.72 24.757c.22-.067.422-.188.586-.352l7.45-7.45c.163-.163.283-.364.35-.585a12.665 12.665 0 0 0-12.106-16.37Zm9.506 15.224-6.937 6.937a9.829 9.829 0 1 1 6.937-6.937Zm-15.6-4.912a1.875 1.875 0 1 1 3.75 0 1.875 1.875 0 0 1-3.75 0Zm12.188 0a1.875 1.875 0 1 1-3.75 0 1.875 1.875 0 0 1 3.75 0Zm-.189 5.86c-1.289 2.233-3.444 3.515-5.905 3.515-2.46 0-4.612-1.28-5.905-3.515a1.406 1.406 0 0 1 2.435-1.407c.456.789 1.513 2.11 3.47 2.11 1.957 0 3.014-1.322 3.47-2.11a1.405 1.405 0 1 1 2.435 1.407Z"/></svg>