<svg xmlns="http://www.w3.org/2000/svg" width="150" height="50" fill="none"><path fill="#fff" d="M137.42 39.058c-4.439 0-6.059-2.571-6.059-6.763v-8.173h-2.501l.07-3.734h1.304c1.832-.106 2.571-.775 2.783-2.501l.317-1.903h2.924v4.157h4.579v4.122h-4.579v7.75c0 1.902 1.056 2.466 2.395 2.466.775 0 1.656-.212 2.29-.634v4.685c-1.445.423-2.607.528-3.523.528Zm-13.451-21.277c-2.008 0-3.065-.845-3.065-2.43 0-1.62 1.057-2.466 3.065-2.466s3.065.88 3.065 2.466c0 1.55-1.092 2.43-3.065 2.43Zm-2.536 20.855V20.142h5.072v18.494h-5.072Zm-21.639 5.636v-24.13h4.298l-.035 5.354.493.035c.704-3.91 2.783-5.883 6.129-5.883 4.721 0 7.504 3.664 7.504 9.794 0 5.953-2.642 9.687-7.292 9.687-3.453 0-5.355-2.113-6.236-5.812h-.528c.352 2.043.74 4.192.74 5.988v4.967h-5.073Zm9.3-9.264c2.466 0 3.84-2.326 3.84-5.531 0-3.311-1.48-5.566-3.91-5.566-2.713 0-4.192 2.677-4.192 5.32v.528c0 2.571 1.62 5.248 4.262 5.248Zm-30.938 9.264v-24.13h4.297l-.035 5.354.493.035c.705-3.91 2.783-5.883 6.13-5.883 4.72 0 7.503 3.664 7.503 9.794 0 5.953-2.642 9.687-7.292 9.687-3.452 0-5.355-2.113-6.235-5.812h-.529c.353 2.043.74 4.192.74 5.988v4.967h-5.072Zm9.3-9.264c2.465 0 3.84-2.326 3.84-5.531 0-3.311-1.48-5.566-3.911-5.566-2.713 0-4.192 2.677-4.192 5.32v.528c0 2.571 1.62 5.248 4.263 5.248ZM52.73 38.636l7.962-23.25h7.116l7.926 23.25H70.24l-1.339-4.51h-9.3l-1.374 4.51h-5.495Zm11.309-19.2-3.382 11.168h7.151l-3.347-11.167h-.422Z"/><g clip-path="url(#a)" filter="url(#b)"><path fill="#fff" fill-rule="evenodd" d="M44.318 41.828 23.864 6.818s-2.874 5.026-4.565 7.706c-1.69 2.68-.507 5.193-.507 5.193s2.511 4.45 5.159 9.105c-.658-.754-1.519-1.459-2.623-2.07-5.748-3.182-10.143 1.843-10.143 1.843L3.41 41.828s5.748.335 12.002.167c6.02-.16 7.342-1.873 8.94-3.943l.189-.244c1.007-1.297 1.714-3.843.906-6.363 1.785 3.128 3.425 5.978 4.165 7.2 2.029 3.35 4.395 3.183 4.395 3.183h10.312Z" clip-rule="evenodd"/></g><defs><clipPath id="a"><path fill="#fff" d="M3.41 6.818h40.908v35.227H3.41z"/></clipPath><filter id="b" width="40.909" height="37.224" x="3.409" y="6.818" color-interpolation-filters="sRGB" filterUnits="userSpaceOnUse"><feFlood flood-opacity="0" result="BackgroundImageFix"/><feBlend in="SourceGraphic" in2="BackgroundImageFix" result="shape"/><feColorMatrix in="SourceAlpha" result="hardAlpha" values="0 0 0 0 0 0 0 0 0 0 0 0 0 0 0 0 0 0 127 0"/><feOffset dy="3"/><feGaussianBlur stdDeviation="1"/><feComposite in2="hardAlpha" k2="-1" k3="1" operator="arithmetic"/><feColorMatrix values="0 0 0 0 1 0 0 0 0 1 0 0 0 0 1 0 0 0 0.25 0"/><feBlend in2="shape" result="effect1_innerShadow_187_490"/></filter></defs></svg>